<svg width="25" height="25" viewBox="0 0 25 25" fill="none" xmlns="http://www.w3.org/2000/svg">
<path d="M22.765 12.3894C22.765 11.5269 22.6937 10.8969 22.5392 10.2437H12.4795V14.1399H18.3842C18.265 15.1082 17.6222 16.5669 16.1942 17.5464L16.174 17.6769L19.354 20.0919L19.5745 20.1137C21.5987 18.2814 22.765 15.5867 22.765 12.3902V12.3894Z" fill="#4285F4"/>
<path d="M12.479 22.6569C15.3717 22.6569 17.8002 21.7239 19.574 20.1137L16.1937 17.5464C15.2885 18.1652 14.0742 18.5964 12.479 18.5964C11.1349 18.5965 9.82451 18.1759 8.73155 17.3937C7.63859 16.6114 6.81786 15.5067 6.38445 14.2344L6.2592 14.2449L2.9517 16.7529L2.9082 16.8707C4.66995 20.3004 8.28945 22.6569 12.479 22.6569Z" fill="#34A853"/>
<path d="M6.38487 14.2337C6.15091 13.5659 6.03025 12.8637 6.02787 12.1562C6.02787 11.4332 6.15913 10.7334 6.37288 10.0802L6.36687 9.9414L3.01813 7.39215L2.90863 7.44315C2.15923 8.90153 1.76745 10.5172 1.76562 12.1569C1.76563 13.8489 2.18263 15.4472 2.90863 16.8699L6.38487 14.2344V14.2337Z" fill="#FBBC05"/>
<path d="M12.4787 5.71667C14.491 5.71667 15.8477 6.56867 16.6217 7.28042L19.6457 4.38692C17.7887 2.69492 15.3722 1.65692 12.4787 1.65692C8.28923 1.65692 4.66973 4.01342 2.90723 7.44317L6.37223 10.0802C7.24073 7.54892 9.64598 5.71667 12.4787 5.71667Z" fill="#EB4335"/>
</svg>
