<svg width="160" height="49" viewBox="0 0 160 49" fill="none" xmlns="http://www.w3.org/2000/svg">
<path d="M127.357 26.8639C127.357 30.5206 127.357 34.1791 127.357 37.8358C127.357 40.6539 127.361 43.4721 127.355 46.2903C127.353 47.4051 126.859 48.0331 125.988 48.0556C125.069 48.0801 124.531 47.439 124.531 46.279C124.527 39.2326 124.514 32.1882 124.544 25.1418C124.548 24.0627 124.384 23.1584 123.384 22.5737C123.204 22.4684 122.963 22.3236 123.048 22.0736C123.142 21.7953 123.428 21.9852 123.621 21.9326C123.651 21.9251 123.683 21.9307 123.715 21.9307C127.791 22.0116 126.699 21.3141 129.297 24.5947C133.824 30.31 138.321 36.0479 142.833 41.7763C143.016 42.0076 143.211 42.2294 143.435 42.4964C143.655 42.094 143.561 41.7481 143.561 41.4229C143.568 35.5666 143.565 29.7103 143.566 23.8559C143.566 22.1281 143.944 21.7465 145.646 21.7446C146.24 21.7446 146.836 21.7371 147.43 21.7502C147.599 21.754 147.836 21.6525 147.922 21.8781C147.996 22.0642 147.89 22.2917 147.734 22.3688C146.195 23.132 146.405 24.5421 146.405 25.8825C146.407 32.677 146.405 39.4733 146.407 46.2677C146.407 46.984 146.366 47.689 145.561 47.9748C144.8 48.2455 144.149 47.9992 143.625 47.4014C143.418 47.1664 143.207 46.9332 143.016 46.687C139.865 42.6374 136.716 38.584 133.567 34.5344C131.555 31.9475 129.543 29.3625 127.532 26.7774C127.475 26.8037 127.415 26.8338 127.357 26.8639Z" fill="white"/>
<path d="M60.3564 21.7431C62.088 21.7431 63.7743 21.7431 65.4588 21.7431C70.4071 21.7431 75.3553 21.7506 80.3017 21.7355C81.0499 21.7337 81.6083 21.9856 81.8245 22.7113C82.0012 23.3054 81.7813 23.8167 81.253 24.1758C80.8883 24.424 80.4765 24.3826 80.0723 24.3826C75.5941 24.3845 71.1159 24.3995 66.6376 24.3676C65.9289 24.3619 65.6845 24.5067 65.7014 25.2738C65.7559 27.778 65.7484 30.284 65.7051 32.7882C65.6939 33.4651 65.8988 33.6042 66.5399 33.6004C70.5161 33.5703 74.4943 33.5835 78.4705 33.5873C79.6531 33.5873 80.2209 34.0403 80.1964 34.9484C80.1739 35.8057 79.6286 36.2231 78.4837 36.2249C74.5375 36.2287 70.5913 36.2419 66.647 36.2118C65.9533 36.2061 65.6826 36.3246 65.7014 37.1086C65.7597 39.6128 65.7484 42.1188 65.7051 44.623C65.6939 45.2867 65.8762 45.4465 66.5305 45.4427C71.3527 45.4145 76.175 45.4503 80.9973 45.407C81.8922 45.3995 81.9542 45.689 81.7305 46.4166C81.3489 47.6518 80.8619 48.0597 79.5892 48.0616C74.6108 48.0635 69.6306 48.0635 64.6523 48.0616C63.2385 48.0616 62.7347 47.5672 62.7347 46.1421C62.729 39.3458 62.6952 32.5514 62.7629 25.7569C62.7779 24.2849 62.2854 23.3016 61.037 22.6135C60.7513 22.45 60.4034 22.3033 60.3564 21.7431Z" fill="white"/>
<path d="M53.5903 21.8318C51.6802 22.6327 51.4584 24.0126 51.4715 25.6276C51.5185 32.3299 51.4922 39.0341 51.4903 45.7364C51.4903 46.0184 51.4997 46.3023 51.479 46.5824C51.4057 47.498 50.806 48.0846 49.99 48.0582C49.1741 48.0319 48.5781 47.419 48.5725 46.5091C48.5556 43.4089 48.5255 40.3069 48.5894 37.2067C48.6063 36.3362 48.3356 36.199 47.5479 36.2065C43.2577 36.246 38.9655 36.246 34.6734 36.2065C33.8594 36.199 33.5605 36.3475 33.5811 37.2518C33.6451 40.32 33.6018 43.3901 33.6075 46.4602C33.6093 47.1596 33.3367 47.6804 32.6881 47.953C32.1091 48.1955 31.5902 48.0526 31.1409 47.6202C30.7103 47.2047 30.7178 46.6764 30.7178 46.1368C30.7216 39.3086 30.7009 32.4803 30.7348 25.652C30.7423 24.2307 30.6859 22.9354 29.1179 22.3187C28.9393 22.2492 28.7833 22.0931 28.8529 21.8844C28.9318 21.6476 29.1706 21.751 29.3398 21.7491C30.1858 21.7397 31.0318 21.7378 31.8778 21.7453C33.0792 21.7566 33.5981 22.2511 33.6037 23.4562C33.6169 26.5262 33.63 29.5963 33.5924 32.6645C33.583 33.3714 33.7259 33.6121 34.4967 33.6046C38.9129 33.5632 43.3291 33.5707 47.7472 33.5989C48.3864 33.6027 48.5932 33.4654 48.5857 32.7886C48.5462 29.7505 48.565 26.7124 48.5706 23.6742C48.5725 22.2323 49.0519 21.7491 50.4657 21.7453C51.3437 21.7416 52.2198 21.7453 53.0977 21.7472C53.1504 21.7453 53.2105 21.766 53.5903 21.8318Z" fill="white"/>
<path d="M22.9298 25.9954C22.2868 26.4617 21.5724 26.7794 20.8053 26.9467C20.1511 27.0896 19.5269 27.0539 18.9441 26.5989C13.539 22.3895 6.17492 24.4594 3.77224 30.8478C1.79821 36.0968 3.89444 42.1374 8.63964 44.399C12.6103 46.2922 16.359 45.6342 19.7732 42.9119C19.9931 42.7371 20.1943 42.5378 20.4143 42.3611C21.1118 41.8065 21.8882 41.8478 22.4109 42.4645C22.8997 43.0398 22.8564 43.8031 22.2172 44.3878C20.6305 45.8373 18.8501 46.9709 16.7595 47.5669C9.25441 49.7064 2.09713 45.5045 0.382542 37.9487C-1.25873 30.7087 3.03339 23.5739 10.1061 22.0624C14.197 21.1882 18.0849 21.6751 21.2904 24.7659C21.7604 25.219 22.3375 25.5555 22.9298 25.9954Z" fill="white"/>
<path d="M88.8408 21.7572C90.1061 21.7572 91.3732 21.7121 92.6347 21.776C93.3247 21.8099 93.6631 22.4321 94.0166 22.9454C96.6787 26.8051 99.337 30.6667 101.995 34.5283C102.067 34.6317 102.142 34.7313 102.245 34.8742C102.573 34.7275 102.697 34.3985 102.879 34.1391C105.46 30.4505 108.057 26.7731 110.595 23.0563C111.24 22.1125 111.954 21.5918 113.142 21.7234C113.971 21.8155 114.817 21.7403 115.62 21.7403C115.742 21.9245 115.693 22.0242 115.581 22.105C114.116 23.1748 113.073 24.6167 112.037 26.0756C109.5 29.6439 106.947 33.1991 104.374 36.7373C103.947 37.3239 103.738 37.8954 103.751 38.6267C103.791 41.005 103.766 43.3851 103.766 45.7633C103.766 45.9833 103.774 46.2014 103.761 46.4213C103.701 47.4497 103.093 48.0833 102.21 48.0513C101.36 48.0194 100.802 47.399 100.796 46.4007C100.781 44.1164 100.724 41.8284 100.817 39.5461C100.869 38.2526 100.51 37.2317 99.7469 36.1921C97.1036 32.5862 94.5392 28.9239 91.9673 25.2672C91.0687 23.9963 90.0121 22.8777 88.8408 21.7572Z" fill="white"/>
<path d="M159.966 34.9068C159.966 38.5691 159.968 42.2295 159.962 45.8918C159.962 46.264 159.972 46.657 159.865 47.0066C159.65 47.7117 159.13 48.0933 158.383 48.0482C157.633 48.0031 157.186 47.5519 157.048 46.828C156.992 46.5254 157.022 46.2039 157.022 45.8918C157.02 38.9751 157.007 32.0604 157.035 25.1438C157.041 23.9405 156.757 22.9949 155.603 22.4478C155.384 22.3444 155.082 22.209 155.136 21.9251C155.206 21.5661 155.552 21.7616 155.766 21.7522C156.422 21.7259 157.08 21.7428 157.736 21.7428C159.588 21.7428 159.964 22.1244 159.964 24.0176C159.966 27.6461 159.966 31.2764 159.966 34.9068Z" fill="white"/>
<path d="M88.3575 0.691533C89.6416 0.691533 90.9256 0.676493 92.2097 0.695293C93.9431 0.719734 95.2008 2.0038 95.2083 3.7447C95.214 4.96672 95.214 6.18875 95.2083 7.40889C95.2008 9.09151 93.9675 10.4395 92.3018 10.4658C89.6397 10.5091 86.9776 10.5015 84.3154 10.4677C82.9016 10.4508 81.6872 9.3284 81.4202 7.95973C81.345 7.57621 81.3525 7.31112 81.8206 7.38445C82.5933 7.50477 83.5089 6.99528 84.118 7.92401C84.2101 8.06502 84.5824 8.06126 84.8249 8.06126C87.143 8.07066 89.4611 8.05186 91.7792 8.0763C92.5255 8.08382 92.8865 7.82061 92.8639 7.0404C92.8339 6.03834 92.8451 5.03629 92.8602 4.03423C92.8696 3.35742 92.5688 3.08857 91.8901 3.09421C89.51 3.11489 87.1298 3.09985 84.7478 3.10549C84.5354 3.10549 84.2064 3.09421 84.1293 3.21454C83.5258 4.15079 82.6046 3.62626 81.8319 3.7541C81.3675 3.83119 81.3469 3.58114 81.4202 3.1901C81.6796 1.81579 82.9016 0.725374 84.3192 0.699054C85.6634 0.672733 87.0114 0.691533 88.3575 0.691533Z" fill="white"/>
<path d="M71.3722 0.691895C72.7183 0.691895 74.0644 0.671214 75.4105 0.697535C76.7716 0.725735 78.0106 1.81239 78.2794 3.1209C78.3828 3.62098 78.2456 3.82215 77.7267 3.75635C76.9747 3.66234 76.108 4.05527 75.5364 3.18482C75.4594 3.06825 75.1247 3.10021 74.9085 3.09833C72.5603 3.09269 70.2122 3.10773 67.864 3.08705C67.1647 3.08141 66.8075 3.31266 66.8263 4.05715C66.8526 5.08929 66.8413 6.1233 66.8281 7.15544C66.8206 7.79465 67.1327 8.05974 67.7475 8.05974C70.1577 8.05598 72.5679 8.0635 74.9799 8.05598C75.1905 8.05598 75.5214 8.0447 75.5928 7.92062C76.0967 7.05956 76.9126 7.47129 77.6007 7.37165C78.4091 7.2532 78.3903 7.67433 78.2061 8.2515C77.8 9.52052 76.6851 10.4474 75.3578 10.4624C72.6976 10.4944 70.0355 10.4662 67.3752 10.4737C66.0442 10.4775 64.3878 9.04487 64.5439 7.55777C64.683 6.22671 64.683 4.85616 64.542 3.5251C64.401 2.18652 65.9802 0.639254 67.3376 0.684375C68.0257 0.706935 68.7157 0.688135 69.4038 0.688135C70.058 0.691895 70.716 0.691895 71.3722 0.691895Z" fill="white"/>
<path d="M79.7128 6.67445C78.4306 6.67445 77.1446 6.64061 75.8643 6.68573C75.0052 6.71769 74.9093 6.27025 74.9112 5.57088C74.9112 4.86962 75.0146 4.45602 75.8719 4.46918C78.5001 4.51054 81.1303 4.5049 83.7586 4.47294C84.5689 4.46354 84.6742 4.86586 84.6685 5.52763C84.6629 6.18941 84.6366 6.70641 83.7473 6.67821C82.4031 6.63497 81.057 6.66693 79.7128 6.66693C79.7128 6.67069 79.7128 6.67257 79.7128 6.67445Z" fill="white"/>
</svg>
